<svg height="32" viewBox="0 0 32 32" width="32" xmlns="http://www.w3.org/2000/svg"><path d="m27.479 0h-22.957c-1.604 0-2.881 1.281-2.881 2.88v26.24c0 1.599 1.277 2.88 2.881 2.88h22.957c1.6 0 2.881-1.281 2.881-2.88v-26.24c0-1.599-1.277-2.88-2.881-2.88zm1.281 29.12c0 .719-.563 1.281-1.281 1.281h-22.957c-.719 0-1.281-.563-1.281-1.281v-26.24c0-.719.563-1.281 1.281-1.281h22.957c.719 0 1.281.563 1.281 1.281zm-19.921-1.923 3.599-3.197-3.599-3.197zm12.964-12.957c-.641-.641-1.839-1.437-3.839-1.437-2.161 0-4.401.557-6 1.119v-9.119h-3.204v13.837l2.24-1.041s3.683-1.677 6.88-1.677c1.599 0 2 .881 2 1.677v9.599h3.203v-9.599c.079-.239.079-2-1.28-3.359zm-4.24-4.24h3.197c1.437-1.683 2.161-3.36 2.401-5.197h-3.197c-.324 1.837-1.125 3.515-2.401 5.197z"/></svg>