<svg fill="dark:orange"height="512" width="450" xmlns="http://www.w3.org/2000/svg"><path d="m242.3771973 187.7129517-63.6107331-187.7129517h270.246582l-63.8298035 188.2586975c-2.7666931.6633148-5.4637146 1.4998779-8.0830383 2.5057831l-63.0550384-128.6317329-63.2382202 127.8707923c-2.7328796-.9421997-5.5455017-1.7169952-8.4297485-2.2905883zm-207.8268967 307.2795715c85.0008163 59.7053528 179.2832031-55.823822 307.7098389-70.3771973 73.7493591-4.3694763 123.8783569-49.5187988 95.3154907-119.4093323-53.1042786 32.7087402-102.7355652-10.1530151-102.3883362-53.1634369h-40.353241c-1.3252869 38.3990021-30.2075806 68.6092072-74.9790649 64.1187897-35.0441284 52.4248352-75.6598053 81.8801575-121.7457352 96.8512268-31.1488266-14.3746948-60.4627075-49.3892822-47.1717567-96.1579895-5.8899345-.6573792-11.5409737-2.1054382-16.8552513-4.2308044-42.8425408 79.9988708-48.1359082 143.2229309.4680557 182.3687439zm63.2809982-242.9438171c0-30.3845367-33.1189346-49.4779663-59.4710083-34.2857056s-26.3520622 53.3791504.0000076 68.5714111c26.3520661 15.1922302 59.4710007-3.9011841 59.4710007-34.2857055zm171.4073792-.3764649c0-30.3845367-33.1189423-49.4779663-59.4710083-34.2857056s-26.352066 53.3791504.0000153 68.5713806c26.352066 15.1922608 59.470993-3.9011535 59.470993-34.285675zm170.7640075 0c0-30.3845367-33.118927-49.4779663-59.4710083-34.2857056s-26.3520508 53.3791504 0 68.5713806c26.3520813 15.1922608 59.4710083-3.9011535 59.4710083-34.285675z"/></svg>